<mxfile host="app.diagrams.net" modified="2024-03-08T09:27:45.612Z" agent="Mozilla/5.0 (Windows NT 10.0; Win64; x64) AppleWebKit/537.36 (KHTML, like Gecko) Chrome/122.0.0.0 Safari/537.36 Edg/122.0.0.0" etag="x6Q66J1rN-7IDn3F2LgQ" version="24.0.1" type="device">
  <diagram id="prtHgNgQTEPvFCAcTncT" name="Page-1">
    <mxGraphModel dx="1848" dy="1063" grid="1" gridSize="10" guides="1" tooltips="1" connect="1" arrows="1" fold="1" page="1" pageScale="1" pageWidth="2339" pageHeight="3300" math="0" shadow="0">
      <root>
        <mxCell id="0" />
        <mxCell id="1" parent="0" />
        <mxCell id="dNxyNK7c78bLwvsdeMH5-19" value="Order to Cash" style="swimlane;html=1;childLayout=stackLayout;resizeParent=1;resizeParentMax=0;horizontal=0;startSize=20;horizontalStack=0;" parent="1" vertex="1">
          <mxGeometry x="20" y="20" width="2250" height="700" as="geometry" />
        </mxCell>
        <mxCell id="dNxyNK7c78bLwvsdeMH5-20" value="Departemen gudang dan distribusi" style="swimlane;html=1;startSize=20;horizontal=0;" parent="dNxyNK7c78bLwvsdeMH5-19" vertex="1">
          <mxGeometry x="20" width="2230" height="430" as="geometry" />
        </mxCell>
        <mxCell id="gF6sH3opbUALbTYa0FMb-2" value="" style="ellipse;whiteSpace=wrap;html=1;aspect=fixed;" vertex="1" parent="dNxyNK7c78bLwvsdeMH5-20">
          <mxGeometry x="30" y="205" width="30" height="30" as="geometry" />
        </mxCell>
        <mxCell id="gF6sH3opbUALbTYa0FMb-3" value="mengecek ketersediaan produk" style="rounded=1;whiteSpace=wrap;html=1;" vertex="1" parent="dNxyNK7c78bLwvsdeMH5-20">
          <mxGeometry x="120" y="190" width="120" height="60" as="geometry" />
        </mxCell>
        <mxCell id="gF6sH3opbUALbTYa0FMb-1" style="edgeStyle=none;curved=1;rounded=0;orthogonalLoop=1;jettySize=auto;html=1;fontSize=12;startSize=8;endSize=8;" edge="1" parent="dNxyNK7c78bLwvsdeMH5-20" source="gF6sH3opbUALbTYa0FMb-2" target="gF6sH3opbUALbTYa0FMb-3">
          <mxGeometry relative="1" as="geometry" />
        </mxCell>
        <mxCell id="gF6sH3opbUALbTYa0FMb-4" value="menerima&lt;div style=&quot;font-size: 12px;&quot;&gt;pesanan&lt;/div&gt;" style="text;html=1;align=center;verticalAlign=middle;resizable=0;points=[];autosize=1;strokeColor=none;fillColor=none;fontSize=12;" vertex="1" parent="dNxyNK7c78bLwvsdeMH5-20">
          <mxGeometry x="5" y="235" width="80" height="40" as="geometry" />
        </mxCell>
        <mxCell id="gF6sH3opbUALbTYa0FMb-9" value="" style="points=[[0.25,0.25,0],[0.5,0,0],[0.75,0.25,0],[1,0.5,0],[0.75,0.75,0],[0.5,1,0],[0.25,0.75,0],[0,0.5,0]];shape=mxgraph.bpmn.gateway2;html=1;verticalLabelPosition=bottom;labelBackgroundColor=#ffffff;verticalAlign=top;align=center;perimeter=rhombusPerimeter;outlineConnect=0;outline=none;symbol=none;gwType=exclusive;" vertex="1" parent="dNxyNK7c78bLwvsdeMH5-20">
          <mxGeometry x="280" y="195" width="50" height="50" as="geometry" />
        </mxCell>
        <mxCell id="gF6sH3opbUALbTYa0FMb-10" style="edgeStyle=none;curved=1;rounded=0;orthogonalLoop=1;jettySize=auto;html=1;entryX=0;entryY=0.5;entryDx=0;entryDy=0;entryPerimeter=0;fontSize=12;startSize=8;endSize=8;" edge="1" parent="dNxyNK7c78bLwvsdeMH5-20" source="gF6sH3opbUALbTYa0FMb-3" target="gF6sH3opbUALbTYa0FMb-9">
          <mxGeometry relative="1" as="geometry" />
        </mxCell>
        <mxCell id="gF6sH3opbUALbTYa0FMb-15" value="memeriksa stok bahan" style="rounded=1;whiteSpace=wrap;html=1;" vertex="1" parent="dNxyNK7c78bLwvsdeMH5-20">
          <mxGeometry x="360" y="100" width="120" height="60" as="geometry" />
        </mxCell>
        <mxCell id="gF6sH3opbUALbTYa0FMb-7" style="edgeStyle=orthogonalEdgeStyle;rounded=0;orthogonalLoop=1;jettySize=auto;html=1;entryX=0;entryY=0.5;entryDx=0;entryDy=0;fontSize=12;startSize=8;endSize=8;exitX=0.5;exitY=0;exitDx=0;exitDy=0;exitPerimeter=0;" edge="1" parent="dNxyNK7c78bLwvsdeMH5-20" source="gF6sH3opbUALbTYa0FMb-9" target="gF6sH3opbUALbTYa0FMb-15">
          <mxGeometry relative="1" as="geometry" />
        </mxCell>
        <mxCell id="gF6sH3opbUALbTYa0FMb-8" value="Produk tidak&lt;div&gt;tersedia&lt;/div&gt;" style="edgeLabel;html=1;align=center;verticalAlign=middle;resizable=0;points=[];fontSize=12;fontFamily=Helvetica;fontColor=default;labelBackgroundColor=default;" vertex="1" connectable="0" parent="gF6sH3opbUALbTYa0FMb-7">
          <mxGeometry x="-0.3031" y="1" relative="1" as="geometry">
            <mxPoint as="offset" />
          </mxGeometry>
        </mxCell>
        <mxCell id="gF6sH3opbUALbTYa0FMb-17" value="memesan stok&lt;div&gt;bahan&lt;/div&gt;" style="rounded=1;whiteSpace=wrap;html=1;" vertex="1" parent="dNxyNK7c78bLwvsdeMH5-20">
          <mxGeometry x="520" y="100" width="125" height="60" as="geometry" />
        </mxCell>
        <mxCell id="gF6sH3opbUALbTYa0FMb-14" style="edgeStyle=orthogonalEdgeStyle;rounded=0;orthogonalLoop=1;jettySize=auto;html=1;entryX=0;entryY=0.5;entryDx=0;entryDy=0;strokeColor=default;align=center;verticalAlign=middle;fontFamily=Helvetica;fontSize=12;fontColor=default;labelBackgroundColor=default;startSize=8;endArrow=classic;endSize=8;" edge="1" parent="dNxyNK7c78bLwvsdeMH5-20" source="gF6sH3opbUALbTYa0FMb-15" target="gF6sH3opbUALbTYa0FMb-17">
          <mxGeometry relative="1" as="geometry" />
        </mxCell>
        <mxCell id="gF6sH3opbUALbTYa0FMb-18" value="memilih pemasok" style="rounded=1;whiteSpace=wrap;html=1;" vertex="1" parent="dNxyNK7c78bLwvsdeMH5-20">
          <mxGeometry x="685" y="100" width="125" height="60" as="geometry" />
        </mxCell>
        <mxCell id="gF6sH3opbUALbTYa0FMb-21" value="" style="points=[[0.25,0.25,0],[0.5,0,0],[0.75,0.25,0],[1,0.5,0],[0.75,0.75,0],[0.5,1,0],[0.25,0.75,0],[0,0.5,0]];shape=mxgraph.bpmn.gateway2;html=1;verticalLabelPosition=bottom;labelBackgroundColor=#ffffff;verticalAlign=top;align=center;perimeter=rhombusPerimeter;outlineConnect=0;outline=none;symbol=none;gwType=exclusive;fontFamily=Helvetica;fontSize=12;fontColor=default;" vertex="1" parent="dNxyNK7c78bLwvsdeMH5-20">
          <mxGeometry x="875" y="105" width="50" height="50" as="geometry" />
        </mxCell>
        <mxCell id="gF6sH3opbUALbTYa0FMb-16" style="edgeStyle=orthogonalEdgeStyle;rounded=0;orthogonalLoop=1;jettySize=auto;html=1;entryX=0;entryY=0.5;entryDx=0;entryDy=0;strokeColor=default;align=center;verticalAlign=middle;fontFamily=Helvetica;fontSize=12;fontColor=default;labelBackgroundColor=default;startSize=8;endArrow=classic;endSize=8;" edge="1" parent="dNxyNK7c78bLwvsdeMH5-20" source="gF6sH3opbUALbTYa0FMb-17" target="gF6sH3opbUALbTYa0FMb-18">
          <mxGeometry relative="1" as="geometry" />
        </mxCell>
        <mxCell id="gF6sH3opbUALbTYa0FMb-22" style="edgeStyle=orthogonalEdgeStyle;rounded=0;orthogonalLoop=1;jettySize=auto;html=1;entryX=0;entryY=0.5;entryDx=0;entryDy=0;entryPerimeter=0;strokeColor=default;align=center;verticalAlign=middle;fontFamily=Helvetica;fontSize=12;fontColor=default;labelBackgroundColor=default;startSize=8;endArrow=classic;endSize=8;" edge="1" parent="dNxyNK7c78bLwvsdeMH5-20" source="gF6sH3opbUALbTYa0FMb-18" target="gF6sH3opbUALbTYa0FMb-21">
          <mxGeometry relative="1" as="geometry" />
        </mxCell>
        <mxCell id="gF6sH3opbUALbTYa0FMb-24" value="memilih pemasok 1" style="rounded=1;whiteSpace=wrap;html=1;fontFamily=Helvetica;fontSize=12;fontColor=default;labelBackgroundColor=default;" vertex="1" parent="dNxyNK7c78bLwvsdeMH5-20">
          <mxGeometry x="965" y="20" width="120" height="60" as="geometry" />
        </mxCell>
        <mxCell id="gF6sH3opbUALbTYa0FMb-19" style="edgeStyle=orthogonalEdgeStyle;rounded=0;orthogonalLoop=1;jettySize=auto;html=1;entryX=0;entryY=0.5;entryDx=0;entryDy=0;strokeColor=default;align=center;verticalAlign=middle;fontFamily=Helvetica;fontSize=12;fontColor=default;labelBackgroundColor=default;startSize=8;endArrow=classic;endSize=8;exitX=0.5;exitY=0;exitDx=0;exitDy=0;exitPerimeter=0;" edge="1" parent="dNxyNK7c78bLwvsdeMH5-20" source="gF6sH3opbUALbTYa0FMb-21" target="gF6sH3opbUALbTYa0FMb-24">
          <mxGeometry relative="1" as="geometry" />
        </mxCell>
        <mxCell id="gF6sH3opbUALbTYa0FMb-25" value="memilih pemasok 2" style="rounded=1;whiteSpace=wrap;html=1;fontFamily=Helvetica;fontSize=12;fontColor=default;labelBackgroundColor=default;" vertex="1" parent="dNxyNK7c78bLwvsdeMH5-20">
          <mxGeometry x="965" y="185" width="120" height="60" as="geometry" />
        </mxCell>
        <mxCell id="gF6sH3opbUALbTYa0FMb-20" style="edgeStyle=orthogonalEdgeStyle;rounded=0;orthogonalLoop=1;jettySize=auto;html=1;entryX=0;entryY=0.5;entryDx=0;entryDy=0;strokeColor=default;align=center;verticalAlign=middle;fontFamily=Helvetica;fontSize=12;fontColor=default;labelBackgroundColor=default;startSize=8;endArrow=classic;endSize=8;exitX=0.5;exitY=1;exitDx=0;exitDy=0;exitPerimeter=0;" edge="1" parent="dNxyNK7c78bLwvsdeMH5-20" source="gF6sH3opbUALbTYa0FMb-21" target="gF6sH3opbUALbTYa0FMb-25">
          <mxGeometry relative="1" as="geometry" />
        </mxCell>
        <mxCell id="gF6sH3opbUALbTYa0FMb-27" value="" style="points=[[0.25,0.25,0],[0.5,0,0],[0.75,0.25,0],[1,0.5,0],[0.75,0.75,0],[0.5,1,0],[0.25,0.75,0],[0,0.5,0]];shape=mxgraph.bpmn.gateway2;html=1;verticalLabelPosition=bottom;labelBackgroundColor=#ffffff;verticalAlign=top;align=center;perimeter=rhombusPerimeter;outlineConnect=0;outline=none;symbol=none;gwType=exclusive;fontFamily=Helvetica;fontSize=12;fontColor=default;" vertex="1" parent="dNxyNK7c78bLwvsdeMH5-20">
          <mxGeometry x="1145" y="105" width="50" height="50" as="geometry" />
        </mxCell>
        <mxCell id="gF6sH3opbUALbTYa0FMb-23" style="edgeStyle=orthogonalEdgeStyle;rounded=0;orthogonalLoop=1;jettySize=auto;html=1;strokeColor=default;align=center;verticalAlign=middle;fontFamily=Helvetica;fontSize=12;fontColor=default;labelBackgroundColor=default;startSize=8;endArrow=classic;endSize=8;" edge="1" parent="dNxyNK7c78bLwvsdeMH5-20" source="gF6sH3opbUALbTYa0FMb-24" target="gF6sH3opbUALbTYa0FMb-27">
          <mxGeometry relative="1" as="geometry" />
        </mxCell>
        <mxCell id="gF6sH3opbUALbTYa0FMb-28" style="edgeStyle=orthogonalEdgeStyle;rounded=0;orthogonalLoop=1;jettySize=auto;html=1;entryX=0.5;entryY=1;entryDx=0;entryDy=0;entryPerimeter=0;strokeColor=default;align=center;verticalAlign=middle;fontFamily=Helvetica;fontSize=12;fontColor=default;labelBackgroundColor=default;startSize=8;endArrow=classic;endSize=8;" edge="1" parent="dNxyNK7c78bLwvsdeMH5-20" source="gF6sH3opbUALbTYa0FMb-25" target="gF6sH3opbUALbTYa0FMb-27">
          <mxGeometry relative="1" as="geometry" />
        </mxCell>
        <mxCell id="gF6sH3opbUALbTYa0FMb-30" value="melanjutkan produksi" style="rounded=1;whiteSpace=wrap;html=1;fontFamily=Helvetica;fontSize=12;fontColor=default;labelBackgroundColor=default;" vertex="1" parent="dNxyNK7c78bLwvsdeMH5-20">
          <mxGeometry x="1255" y="100" width="120" height="60" as="geometry" />
        </mxCell>
        <mxCell id="gF6sH3opbUALbTYa0FMb-26" style="edgeStyle=orthogonalEdgeStyle;rounded=0;orthogonalLoop=1;jettySize=auto;html=1;strokeColor=default;align=center;verticalAlign=middle;fontFamily=Helvetica;fontSize=12;fontColor=default;labelBackgroundColor=default;startSize=8;endArrow=classic;endSize=8;" edge="1" parent="dNxyNK7c78bLwvsdeMH5-20" source="gF6sH3opbUALbTYa0FMb-27" target="gF6sH3opbUALbTYa0FMb-30">
          <mxGeometry relative="1" as="geometry" />
        </mxCell>
        <mxCell id="dNxyNK7c78bLwvsdeMH5-21" value="Departemen Penjuall" style="swimlane;html=1;startSize=20;horizontal=0;" parent="dNxyNK7c78bLwvsdeMH5-19" vertex="1">
          <mxGeometry x="20" y="430" width="2230" height="270" as="geometry" />
        </mxCell>
        <mxCell id="gF6sH3opbUALbTYa0FMb-13" value="memproses pemesanan" style="rounded=1;whiteSpace=wrap;html=1;" vertex="1" parent="dNxyNK7c78bLwvsdeMH5-21">
          <mxGeometry x="1390" y="90" width="120" height="60" as="geometry" />
        </mxCell>
        <mxCell id="gF6sH3opbUALbTYa0FMb-12" value="mengambil barang di gudang" style="rounded=1;whiteSpace=wrap;html=1;" vertex="1" parent="dNxyNK7c78bLwvsdeMH5-21">
          <mxGeometry x="360" y="140" width="120" height="60" as="geometry" />
        </mxCell>
        <mxCell id="gF6sH3opbUALbTYa0FMb-11" style="edgeStyle=orthogonalEdgeStyle;rounded=0;orthogonalLoop=1;jettySize=auto;html=1;fontSize=12;startSize=8;endSize=8;entryX=0.5;entryY=1;entryDx=0;entryDy=0;" edge="1" parent="dNxyNK7c78bLwvsdeMH5-21" source="gF6sH3opbUALbTYa0FMb-12" target="gF6sH3opbUALbTYa0FMb-13">
          <mxGeometry relative="1" as="geometry" />
        </mxCell>
        <mxCell id="gF6sH3opbUALbTYa0FMb-39" style="edgeStyle=orthogonalEdgeStyle;rounded=0;orthogonalLoop=1;jettySize=auto;html=1;entryX=0;entryY=0.5;entryDx=0;entryDy=0;exitX=0.5;exitY=0;exitDx=0;exitDy=0;exitPerimeter=0;" edge="1" parent="dNxyNK7c78bLwvsdeMH5-21" source="gF6sH3opbUALbTYa0FMb-36" target="gF6sH3opbUALbTYa0FMb-38">
          <mxGeometry relative="1" as="geometry" />
        </mxCell>
        <mxCell id="gF6sH3opbUALbTYa0FMb-41" style="edgeStyle=orthogonalEdgeStyle;rounded=0;orthogonalLoop=1;jettySize=auto;html=1;exitX=0.5;exitY=1;exitDx=0;exitDy=0;exitPerimeter=0;" edge="1" parent="dNxyNK7c78bLwvsdeMH5-21" source="gF6sH3opbUALbTYa0FMb-36" target="gF6sH3opbUALbTYa0FMb-40">
          <mxGeometry relative="1" as="geometry" />
        </mxCell>
        <mxCell id="gF6sH3opbUALbTYa0FMb-36" value="" style="points=[[0.25,0.25,0],[0.5,0,0],[0.75,0.25,0],[1,0.5,0],[0.75,0.75,0],[0.5,1,0],[0.25,0.75,0],[0,0.5,0]];shape=mxgraph.bpmn.gateway2;html=1;verticalLabelPosition=bottom;labelBackgroundColor=#ffffff;verticalAlign=top;align=center;perimeter=rhombusPerimeter;outlineConnect=0;outline=none;symbol=none;gwType=exclusive;" vertex="1" parent="dNxyNK7c78bLwvsdeMH5-21">
          <mxGeometry x="1580" y="95" width="50" height="50" as="geometry" />
        </mxCell>
        <mxCell id="gF6sH3opbUALbTYa0FMb-37" style="edgeStyle=orthogonalEdgeStyle;rounded=0;orthogonalLoop=1;jettySize=auto;html=1;entryX=0;entryY=0.5;entryDx=0;entryDy=0;entryPerimeter=0;" edge="1" parent="dNxyNK7c78bLwvsdeMH5-21" source="gF6sH3opbUALbTYa0FMb-13" target="gF6sH3opbUALbTYa0FMb-36">
          <mxGeometry relative="1" as="geometry" />
        </mxCell>
        <mxCell id="gF6sH3opbUALbTYa0FMb-38" value="mengirim faktur" style="rounded=1;whiteSpace=wrap;html=1;" vertex="1" parent="dNxyNK7c78bLwvsdeMH5-21">
          <mxGeometry x="1680" y="20" width="120" height="60" as="geometry" />
        </mxCell>
        <mxCell id="gF6sH3opbUALbTYa0FMb-40" value="mengirim barang" style="rounded=1;whiteSpace=wrap;html=1;" vertex="1" parent="dNxyNK7c78bLwvsdeMH5-21">
          <mxGeometry x="1680" y="145" width="120" height="60" as="geometry" />
        </mxCell>
        <mxCell id="gF6sH3opbUALbTYa0FMb-46" style="edgeStyle=orthogonalEdgeStyle;rounded=0;orthogonalLoop=1;jettySize=auto;html=1;entryX=0;entryY=0.5;entryDx=0;entryDy=0;" edge="1" parent="dNxyNK7c78bLwvsdeMH5-21" source="gF6sH3opbUALbTYa0FMb-42" target="gF6sH3opbUALbTYa0FMb-45">
          <mxGeometry relative="1" as="geometry" />
        </mxCell>
        <mxCell id="gF6sH3opbUALbTYa0FMb-42" value="" style="points=[[0.25,0.25,0],[0.5,0,0],[0.75,0.25,0],[1,0.5,0],[0.75,0.75,0],[0.5,1,0],[0.25,0.75,0],[0,0.5,0]];shape=mxgraph.bpmn.gateway2;html=1;verticalLabelPosition=bottom;labelBackgroundColor=#ffffff;verticalAlign=top;align=center;perimeter=rhombusPerimeter;outlineConnect=0;outline=none;symbol=none;gwType=exclusive;" vertex="1" parent="dNxyNK7c78bLwvsdeMH5-21">
          <mxGeometry x="1830" y="95" width="50" height="50" as="geometry" />
        </mxCell>
        <mxCell id="gF6sH3opbUALbTYa0FMb-43" style="edgeStyle=orthogonalEdgeStyle;rounded=0;orthogonalLoop=1;jettySize=auto;html=1;entryX=0.5;entryY=0;entryDx=0;entryDy=0;entryPerimeter=0;" edge="1" parent="dNxyNK7c78bLwvsdeMH5-21" source="gF6sH3opbUALbTYa0FMb-38" target="gF6sH3opbUALbTYa0FMb-42">
          <mxGeometry relative="1" as="geometry" />
        </mxCell>
        <mxCell id="gF6sH3opbUALbTYa0FMb-44" style="edgeStyle=orthogonalEdgeStyle;rounded=0;orthogonalLoop=1;jettySize=auto;html=1;entryX=0.5;entryY=1;entryDx=0;entryDy=0;entryPerimeter=0;" edge="1" parent="dNxyNK7c78bLwvsdeMH5-21" source="gF6sH3opbUALbTYa0FMb-40" target="gF6sH3opbUALbTYa0FMb-42">
          <mxGeometry relative="1" as="geometry" />
        </mxCell>
        <mxCell id="gF6sH3opbUALbTYa0FMb-48" style="edgeStyle=orthogonalEdgeStyle;rounded=0;orthogonalLoop=1;jettySize=auto;html=1;" edge="1" parent="dNxyNK7c78bLwvsdeMH5-21" source="gF6sH3opbUALbTYa0FMb-45" target="gF6sH3opbUALbTYa0FMb-47">
          <mxGeometry relative="1" as="geometry" />
        </mxCell>
        <mxCell id="gF6sH3opbUALbTYa0FMb-45" value="mencetak laporan" style="rounded=1;whiteSpace=wrap;html=1;" vertex="1" parent="dNxyNK7c78bLwvsdeMH5-21">
          <mxGeometry x="1930" y="90" width="120" height="60" as="geometry" />
        </mxCell>
        <mxCell id="gF6sH3opbUALbTYa0FMb-47" value="" style="ellipse;whiteSpace=wrap;html=1;aspect=fixed;" vertex="1" parent="dNxyNK7c78bLwvsdeMH5-21">
          <mxGeometry x="2130" y="105" width="30" height="30" as="geometry" />
        </mxCell>
        <mxCell id="gF6sH3opbUALbTYa0FMb-29" style="edgeStyle=orthogonalEdgeStyle;rounded=0;orthogonalLoop=1;jettySize=auto;html=1;strokeColor=default;align=center;verticalAlign=middle;fontFamily=Helvetica;fontSize=12;fontColor=default;labelBackgroundColor=default;startSize=8;endArrow=classic;endSize=8;" edge="1" parent="dNxyNK7c78bLwvsdeMH5-19" source="gF6sH3opbUALbTYa0FMb-30" target="gF6sH3opbUALbTYa0FMb-13">
          <mxGeometry relative="1" as="geometry">
            <mxPoint x="1475" y="290" as="targetPoint" />
          </mxGeometry>
        </mxCell>
        <mxCell id="gF6sH3opbUALbTYa0FMb-5" style="edgeStyle=orthogonalEdgeStyle;rounded=0;orthogonalLoop=1;jettySize=auto;html=1;entryX=0;entryY=0.5;entryDx=0;entryDy=0;fontSize=12;startSize=8;endSize=8;exitX=0.5;exitY=1;exitDx=0;exitDy=0;exitPerimeter=0;" edge="1" parent="dNxyNK7c78bLwvsdeMH5-19" source="gF6sH3opbUALbTYa0FMb-9" target="gF6sH3opbUALbTYa0FMb-12">
          <mxGeometry relative="1" as="geometry" />
        </mxCell>
        <mxCell id="gF6sH3opbUALbTYa0FMb-6" value="Produk tersedia" style="edgeLabel;html=1;align=center;verticalAlign=middle;resizable=0;points=[];fontSize=12;" vertex="1" connectable="0" parent="gF6sH3opbUALbTYa0FMb-5">
          <mxGeometry x="-0.4815" y="-1" relative="1" as="geometry">
            <mxPoint as="offset" />
          </mxGeometry>
        </mxCell>
        <mxCell id="gF6sH3opbUALbTYa0FMb-49" value="" style="rounded=0;whiteSpace=wrap;html=1;fillColor=none;" vertex="1" parent="1">
          <mxGeometry x="10" y="10" width="2280" height="790" as="geometry" />
        </mxCell>
      </root>
    </mxGraphModel>
  </diagram>
</mxfile>
